# xmcd
#
# Track frame offsets:
#	187
#	17192
#	31632
#	50950
#	64105
#	75847
#	95470
#	114370
#	136677
#	159255
#
# Disc length: 2393 seconds
#
# Revision: 2
# Processed by: cddbd v1.4PL0 Copyright (c) Steve Scherf et al.
# Submitted via: CDmax 1.9
#
DISCID=6d09570a
DTITLE=Marty Brown - Wild Kentucky Skies
DYEAR=1993
DGENRE=Country
TTITLE0=It Must Be the Rain
TTITLE1=Let's Begin Again
TTITLE2=God Knows
TTITLE3=No Honky Tonkin' Tonight
TTITLE4=I'd Rather Fish Than Fight
TTITLE5=Honey I Ain't No Fool
TTITLE6=I Don't Want to See You Again
TTITLE7=Freight Train
TTITLE8=She's Gone
TTITLE9=Wild Kentucky Skies
EXTD=
EXTT0=
EXTT1=
EXTT2=
EXTT3=
EXTT4=
EXTT5=
EXTT6=
EXTT7=
EXTT8=
EXTT9=
PLAYORDER=
